M48
; DRILL file {KiCad (6.0.7)} date Thu Aug 11 17:03:59 2022
; FORMAT={2:4/ absolute / inch / suppress leading zeros}
; #@! TF.CreationDate,2022-08-11T17:03:59+02:00
; #@! TF.GenerationSoftware,Kicad,Pcbnew,(6.0.7)
; #@! TF.FileFunction,Plated,1,4,PTH
FMAT,2
INCH,TZ
; #@! TA.AperFunction,Plated,PTH,ViaDrill
T1C0.0098
; #@! TA.AperFunction,Plated,PTH,ComponentDrill
T2C0.0130
; #@! TA.AperFunction,Plated,PTH,ComponentDrill
T3C0.0177
; #@! TA.AperFunction,Plated,PTH,ComponentDrill
T4C0.0276
; #@! TA.AperFunction,Plated,PTH,ComponentDrill
T5C0.0354
; #@! TA.AperFunction,Plated,PTH,ComponentDrill
T6C0.0394
; #@! TA.AperFunction,Plated,PTH,ComponentDrill
T7C0.0402
; #@! TA.AperFunction,Plated,PTH,ComponentDrill
T8C0.0669
; #@! TA.AperFunction,Plated,PTH,ComponentDrill
T9C0.0906
%
G90
G05
T1
X32087Y-28543
X32087Y-32480
X32087Y-37402
X32087Y-40354
X32087Y-45276
X32087Y-51181
X32087Y-56102
X32087Y-60039
X33386Y-34724
X33524Y-31299
X33563Y-30630
X33720Y-30906
X33996Y-30906
X34055Y-28543
X34055Y-62008
X34154Y-30630
X34154Y-31299
X34272Y-35925
X34272Y-38287
X34291Y-35354
X34291Y-36496
X34291Y-37126
X34291Y-37677
X34291Y-38878
X34449Y-34685
X34528Y-38445
X34528Y-38720
X34567Y-37264
X34567Y-37539
X34606Y-34961
X34606Y-35433
X34744Y-30630
X34764Y-31260
X34783Y-35748
X34823Y-37047
X34823Y-37717
X34823Y-38898
X34843Y-38268
X34902Y-30945
X35177Y-30945
X35197Y-37854
X35197Y-38130
X35335Y-30630
X35453Y-37677
X35453Y-38268
X35925Y-30669
X35984Y-40709
X35984Y-41102
X36181Y-40906
X36319Y-39055
X36516Y-30630
X36555Y-33819
X36575Y-34449
X36614Y-39094
X36614Y-48228
X36811Y-33996
X36811Y-34272
X37008Y-28543
X37067Y-29331
X37067Y-33819
X37067Y-34449
X37087Y-39134
X37106Y-30630
X37382Y-39173
X37480Y-28976
X37598Y-29370
X37854Y-30256
X37894Y-29488
X38169Y-32598
X38169Y-33976
X38209Y-33268
X38425Y-32776
X38425Y-33051
X38425Y-33524
X38425Y-33799
X38642Y-33268
X38681Y-32598
X38681Y-33976
X38760Y-58194
X38780Y-59606
X39055Y-44764
X39114Y-57092
X39154Y-45374
X39291Y-45098
X39961Y-58307
X39961Y-59626
X39961Y-62008
X40551Y-35709
X40551Y-58307
X40551Y-59626
X40610Y-31142
X40650Y-30650
X40650Y-55157
X40747Y-35307
X40807Y-30906
X40945Y-28543
X40965Y-45098
X41083Y-30906
X41142Y-58307
X41142Y-59626
X41171Y-35384
X41240Y-30648
X41240Y-31181
X41240Y-31732
X41260Y-35748
X41398Y-31457
X41535Y-33622
X41654Y-43780
X41673Y-31457
X41732Y-58307
X41732Y-59626
X41850Y-30648
X41850Y-31181
X41870Y-31693
X41909Y-54139
X41988Y-30906
X42146Y-57997
X42238Y-48589
X42264Y-30906
X42421Y-30648
X42579Y-31024
X43012Y-30630
X43250Y-46593
X43406Y-56737
X43445Y-52721
X43602Y-30630
X43858Y-46142
X43858Y-56969
X44154Y-45949
X44193Y-30614
X44193Y-31417
X44232Y-55950
X44252Y-35433
X44449Y-31614
X44469Y-51737
X44724Y-62087
X44843Y-35315
X44882Y-28543
X44980Y-30256
X44980Y-30669
X45000Y-30984
X45177Y-35236
X45197Y-58386
X45236Y-59685
X45512Y-54646
X45591Y-62032
X45669Y-60394
X46240Y-28701
X46358Y-50674
X46752Y-53469
X47697Y-31142
X47717Y-31632
X47736Y-30630
X47835Y-28543
X47894Y-31417
X47933Y-57721
X48169Y-31417
X48327Y-30630
X48327Y-31142
X48327Y-31693
X48484Y-30906
X48602Y-56462
X48622Y-58268
X48622Y-59606
X48760Y-30906
X48917Y-30630
X48917Y-31161
X48917Y-31693
X49075Y-31417
X49114Y-50635
X49232Y-53430
X49350Y-31417
X49508Y-30630
X49508Y-31142
X49665Y-30906
X49665Y-31457
X49803Y-58287
X49803Y-59587
X49843Y-47126
X49941Y-30906
X50059Y-55084
X50098Y-30630
X50236Y-31102
X50394Y-58287
X50394Y-59606
X50413Y-28563
X50689Y-30630
X50945Y-30807
X50945Y-31083
X50984Y-58287
X50984Y-59587
X51161Y-50635
X51280Y-30630
X51358Y-29291
X51575Y-58287
X51575Y-59587
X51594Y-29173
X51650Y-29469
X51791Y-53391
X51949Y-56658
X52281Y-30096
X52953Y-56102
X52972Y-48745
X53130Y-55517
X53583Y-59882
X53583Y-61181
X55571Y-53115
X56457Y-41378
X56476Y-41673
X56949Y-51698
X57559Y-35354
X57874Y-35394
X58504Y-35398
X58760Y-49847
X58819Y-54016
X58819Y-54882
X59134Y-35354
X59685Y-54252
X60138Y-61909
X60236Y-54252
X60394Y-36693
X60571Y-36437
X60650Y-51225
X60748Y-36693
X60886Y-47761
X60906Y-36437
X60965Y-45399
X60965Y-46029
X61063Y-36693
X61181Y-54882
X61208Y-54052
X61220Y-36457
X61283Y-29821
X61378Y-36693
X61594Y-52288
X61772Y-38976
X61969Y-39232
X61969Y-39508
X62008Y-33701
X62106Y-38961
X62126Y-39764
X62283Y-33937
X62362Y-38524
X62362Y-38799
X62559Y-35079
X62598Y-38311
X62638Y-49198
X62874Y-36063
X62874Y-37008
X62904Y-39882
X62913Y-34134
X62913Y-40799
X63445Y-45512
X63465Y-33697
X63465Y-34646
X63465Y-35591
X63465Y-36535
X63465Y-37480
X63465Y-38429
X63465Y-38898
X63465Y-39370
X63465Y-40354
X63504Y-37913
X63525Y-36908
X63642Y-50281
X63661Y-37717
X63661Y-45748
X63701Y-36693
X63740Y-38051
X63740Y-38327
X63858Y-34134
X64041Y-37472
X64134Y-35118
X64134Y-36063
X64134Y-38425
X64134Y-38898
X64134Y-39366
X64134Y-39846
X64134Y-40776
X64135Y-37005
X64135Y-37807
X64149Y-34179
X64409Y-61870
X64673Y-37636
X64685Y-33697
X64685Y-34650
X64685Y-35594
X64685Y-36539
X64685Y-40319
X65276Y-39941
X65276Y-40217
X65354Y-28012
X65394Y-29316
X65551Y-39921
X65551Y-40240
X65591Y-45315
X65827Y-31032
X65827Y-39469
X65827Y-39744
X65846Y-45472
X65886Y-46260
X65906Y-46811
X66102Y-39453
X66102Y-39764
X66142Y-31032
X66142Y-46398
X66142Y-46673
X66378Y-38799
X66378Y-39075
X66379Y-46843
X66496Y-37657
X66496Y-37933
X66516Y-45709
X66535Y-46260
X66575Y-30827
X66654Y-39094
X66693Y-38740
X66772Y-37598
X66772Y-37953
X66772Y-45846
X66772Y-46122
X66811Y-36870
X66811Y-37146
X66909Y-30787
X66969Y-38287
X66969Y-38563
X67047Y-36654
X67047Y-45118
X67047Y-45709
X67047Y-46260
X67106Y-37185
X67158Y-56661
X67244Y-30787
X67283Y-35217
X67283Y-35492
X67283Y-36161
X67283Y-36437
X67323Y-45256
X67323Y-45531
X67362Y-38228
X67362Y-38583
X67480Y-46736
X67559Y-36142
X67559Y-36457
X67579Y-35531
X67579Y-45118
X67598Y-30787
X67598Y-45709
X67618Y-35217
X67776Y-46732
X67835Y-35689
X67835Y-35965
X67880Y-49876
X67913Y-30787
X67913Y-34783
X67913Y-35059
X68051Y-46732
X68110Y-33327
X68110Y-33602
X68110Y-54213
X68130Y-35630
X68150Y-35984
X68189Y-34705
X68248Y-35118
X68346Y-46732
X68406Y-33228
X68425Y-31220
X68425Y-33563
X68445Y-34272
X68445Y-34547
X68504Y-50197
X68646Y-55673
X68681Y-33602
X68701Y-31181
X68701Y-50512
X68724Y-52459
X68740Y-34311
X68740Y-34587
X68945Y-36518
X68976Y-45354
X68998Y-31220
X69016Y-45000
X69035Y-27992
X69035Y-28543
X69035Y-29094
X69035Y-29724
X69055Y-51919
X69055Y-52215
X69094Y-33799
X69094Y-34075
X69203Y-55669
X69213Y-34390
X69239Y-53649
X69245Y-53261
X69370Y-31693
X69370Y-44921
X69409Y-49370
X69409Y-50197
X69488Y-62008
X69494Y-51618
X69494Y-52496
X69509Y-49666
X69528Y-55236
X69626Y-33406
X69680Y-52840
X69704Y-49861
X69764Y-31693
X69843Y-50827
X69872Y-54242
X69882Y-31457
X69896Y-53425
X69921Y-55039
X70157Y-31181
X70157Y-34803
X70157Y-49823
X70236Y-49421
X70256Y-33957
X70335Y-35866
X70354Y-36457
X70372Y-51908
X70472Y-31220
X70492Y-33228
X70551Y-35551
X70650Y-33898
X70689Y-34409
X70689Y-36220
X70710Y-52754
X70710Y-53417
X70710Y-55057
X70710Y-55825
X70748Y-35236
X70827Y-31220
X70945Y-35827
X71024Y-36240
X71220Y-34567
X71240Y-51575
X71339Y-55906
X71339Y-56142
X71378Y-31181
X71417Y-33189
X71496Y-51850
X71496Y-55039
X71496Y-56417
X71524Y-53425
X71533Y-54239
X71535Y-34685
X71535Y-46969
X71614Y-34055
X71619Y-52180
X71654Y-56102
X71693Y-33425
X71732Y-31181
X71772Y-62441
X71850Y-51781
X71929Y-46850
X71969Y-33465
X71969Y-34055
X72126Y-55472
X72140Y-55104
X72165Y-53110
X72175Y-51781
X72205Y-54016
X72205Y-54291
X72244Y-30591
X72244Y-33740
X72303Y-41575
X72330Y-34150
X72446Y-51969
X72559Y-33583
X72598Y-41575
X72697Y-48898
X72756Y-53091
X72815Y-30236
X73150Y-53661
X73406Y-33976
X73671Y-53573
X73671Y-54498
X73701Y-33937
X73701Y-41575
X73720Y-30236
X73819Y-50881
X73819Y-51732
X74016Y-41575
X74094Y-38031
X74094Y-56260
X74134Y-44094
X74449Y-43858
X74488Y-31339
X74488Y-37606
X74527Y-38031
X74528Y-50256
X74547Y-30236
X74547Y-50807
X74626Y-50512
X74685Y-54547
X74764Y-45157
X74862Y-31417
X74862Y-32008
X74862Y-32441
X74862Y-32874
X74882Y-53701
X74921Y-37465
X74961Y-39488
X75059Y-38426
X75197Y-31575
X75217Y-32165
X75217Y-32638
X75236Y-36181
X75276Y-39528
X75315Y-37465
X75315Y-38422
X75315Y-48898
X75354Y-62441
X75413Y-35610
X75472Y-53701
X75571Y-30236
X75591Y-36220
X75591Y-39567
X75609Y-38939
X75614Y-36832
X75643Y-37478
X75728Y-29882
X75768Y-27953
X75787Y-31654
X75886Y-31378
X75911Y-38909
X75945Y-37362
X75945Y-38110
X75965Y-36201
X75984Y-39726
X76004Y-34724
X76083Y-52697
X76083Y-53445
X76102Y-35591
X76102Y-44961
X76181Y-33585
X76181Y-34252
X76188Y-38887
X76220Y-37323
X76220Y-38110
X76220Y-39567
X76220Y-41339
X76238Y-36535
X76252Y-62028
X76280Y-57795
X76339Y-43110
X76358Y-42638
X76516Y-44606
X76646Y-61299
X76693Y-33228
X76752Y-44409
X76811Y-33695
X76811Y-35598
X76811Y-36220
X76811Y-40787
X76831Y-40315
X76843Y-38896
X76850Y-37323
X76850Y-38110
X76850Y-42520
X76861Y-39766
X76870Y-34724
X76909Y-44134
X77008Y-38701
X77028Y-44409
X77071Y-61870
X77087Y-35433
X77087Y-40039
X77087Y-36622
X77126Y-37205
X77126Y-38071
X77126Y-39374
X77126Y-51382
X77126Y-51929
X77166Y-36252
X77283Y-38819
X77343Y-44370
X77362Y-33858
X77390Y-37564
X77402Y-33354
X77402Y-39528
X77402Y-39803
X77421Y-45236
X77441Y-37953
X77441Y-40236
X77441Y-44665
X77441Y-44941
X77454Y-37161
X77480Y-35748
X77480Y-36693
X77490Y-36196
X77500Y-61870
X77638Y-42795
X77657Y-41457
X77717Y-42205
X77756Y-45433
X77795Y-42638
X77933Y-41969
X77933Y-61870
X77953Y-33268
X77992Y-50630
X77992Y-52598
X78030Y-40787
X78039Y-39512
X78061Y-39173
X78061Y-37362
X78071Y-37717
X78071Y-38819
X78081Y-37973
X78110Y-38268
X78110Y-39843
X78150Y-33937
X78150Y-38543
X78150Y-41772
X78169Y-56122
X78169Y-57028
X78299Y-37525
X78366Y-61870
X78514Y-29518
X78622Y-29843
X78622Y-31614
X78622Y-56102
X78661Y-54882
X78819Y-55157
X78819Y-57028
X78819Y-61850
X78937Y-33740
X78937Y-35157
X78937Y-56024
X78957Y-34803
X78965Y-54370
X78996Y-31614
X79055Y-29803
X79075Y-35433
X79094Y-54606
X79142Y-53819
X79193Y-61732
X79272Y-34724
X79291Y-35118
X79291Y-54016
X79409Y-54370
X79528Y-53386
X79685Y-30906
X79724Y-30315
X79783Y-47559
X79803Y-53661
X79843Y-50315
X80039Y-47461
X80039Y-47717
X80110Y-52598
X80276Y-50236
X80295Y-47618
X80669Y-50944
X80669Y-54488
X80689Y-45315
X80787Y-30315
X80984Y-45433
X80984Y-46260
X81122Y-62224
X81280Y-46260
X81634Y-61575
X81693Y-31378
X81717Y-56831
X82067Y-62224
X82224Y-57795
X82264Y-55039
X82283Y-28543
X82283Y-48228
X82283Y-52165
X82559Y-30315
X82618Y-33543
X83031Y-62500
X83917Y-52835
X83917Y-55039
X83957Y-57559
X84154Y-33543
X84252Y-61024
X84252Y-62008
X85118Y-49961
X85138Y-37815
X85433Y-42638
X86772Y-53386
X86929Y-44114
X86929Y-44429
X86929Y-44744
X87126Y-37126
X87126Y-37520
X87126Y-37992
X87736Y-53701
X87776Y-49651
X87795Y-37087
X87795Y-38031
X87795Y-49237
X87795Y-50064
X87795Y-50556
X87795Y-50929
X87815Y-37539
X87815Y-38449
X87815Y-38917
X88150Y-50182
X88150Y-50555
X88189Y-62008
X88268Y-50929
X88346Y-37008
X88346Y-37539
X88346Y-38031
X88346Y-38921
X88346Y-49119
X88366Y-49611
X88760Y-49572
X88780Y-49119
X88780Y-50103
X88819Y-34547
X88819Y-37008
X88819Y-37539
X88819Y-38031
X88819Y-38921
X88819Y-50969
X88858Y-46678
X88878Y-38543
X88903Y-50640
X89173Y-51304
X89173Y-51599
X89173Y-52052
X89173Y-52328
X89232Y-39213
X89232Y-39528
X89232Y-39921
X89232Y-40276
X89941Y-40453
X90650Y-39173
X90650Y-39528
X90650Y-39961
X90650Y-40276
X90650Y-51304
X90650Y-51619
X90650Y-52032
X90650Y-52347
X90978Y-50070
X90984Y-49592
X90990Y-49192
X91024Y-37559
X91030Y-36963
X91037Y-38096
X91201Y-47067
X91240Y-35059
X91299Y-49592
X91575Y-37008
X91575Y-37598
X91575Y-38071
X91575Y-38583
X91575Y-38976
X91614Y-36378
X91654Y-48647
X91654Y-49119
X91654Y-49552
X91654Y-49906
X91654Y-50300
X91654Y-50694
X91929Y-36378
X91929Y-37008
X91929Y-37598
X91929Y-38071
X91929Y-38583
X91929Y-38976
X91969Y-48647
X91969Y-49119
X91969Y-49552
X91969Y-49946
X91969Y-50300
X91969Y-50694
X92146Y-57303
X92165Y-56713
X93110Y-28543
X93110Y-30512
X93110Y-44291
X93110Y-48228
X93110Y-52165
X93110Y-62008
X93248Y-37047
X93307Y-55906
T2
X89646Y-49375
X89646Y-49887
X89665Y-37283
X89665Y-37795
X90157Y-49375
X90157Y-49887
X90177Y-37283
X90177Y-37795
T4
X81004Y-37461
X81004Y-38248
X81004Y-39035
X81004Y-39823
X81004Y-41398
X81004Y-42185
X81004Y-42972
X81004Y-43760
X81004Y-44547
X81791Y-37854
X81791Y-38642
X81791Y-39429
X81791Y-41004
X81791Y-41791
X81791Y-42579
X81791Y-43366
X81791Y-44154
X81791Y-44941
X82776Y-37854
X82776Y-38642
X82776Y-39429
X82776Y-41004
X82776Y-41791
X82776Y-42579
X82776Y-43366
X82776Y-44154
X82776Y-44941
X83563Y-37461
X83563Y-38248
X83563Y-39035
X83563Y-39823
X83563Y-41398
X83563Y-42185
X83563Y-42972
X83563Y-43760
X83563Y-44547
T5
X57986Y-55752
X57986Y-57744
X58486Y-56752
X58986Y-55752
X58986Y-58244
X59486Y-56752
X59986Y-55752
X60486Y-56752
X60986Y-55752
X61486Y-56752
X61486Y-58244
X61986Y-55752
X62486Y-56752
X62486Y-57744
X83366Y-32185
X84350Y-32185
X85335Y-32185
X86319Y-32185
T6
X34398Y-41843
X34398Y-42843
X35398Y-41843
X35398Y-42843
X36398Y-41843
X36398Y-42843
X37398Y-41843
X37398Y-42843
X38398Y-41843
X38398Y-42843
X39398Y-41843
X39398Y-42843
X40398Y-41843
X40398Y-42843
X41398Y-41843
X41398Y-42843
X42124Y-50354
X42398Y-41843
X42398Y-42843
X43124Y-50354
X43398Y-41843
X43398Y-42843
X44124Y-50354
X44398Y-41843
X44398Y-42843
X45398Y-41843
X45398Y-42843
X46398Y-41843
X46398Y-42843
X47398Y-41843
X47398Y-42843
X47402Y-39630
X47402Y-40630
X48398Y-41843
X48398Y-42843
X48402Y-39630
X48402Y-40630
X49398Y-41843
X49398Y-42843
X50398Y-41843
X50398Y-42843
X51398Y-41843
X51398Y-42843
X52398Y-41843
X52398Y-42843
X53398Y-41843
X53398Y-42843
X54724Y-28331
X54724Y-29331
X54815Y-44240
X54815Y-45240
X55724Y-28331
X55724Y-29331
X55815Y-44240
X55815Y-45240
X56724Y-28331
X56724Y-29331
X57724Y-28331
X57724Y-29331
X58724Y-28331
X58724Y-29331
X59724Y-28331
X59724Y-29331
X60724Y-28331
X60724Y-29331
X66339Y-57232
X66339Y-58264
X67323Y-57232
X67323Y-58264
X68110Y-57232
X68110Y-58264
X69094Y-57232
X69094Y-58264
X73622Y-55669
X73622Y-56669
X73622Y-57669
X73622Y-58669
X73622Y-59669
X74622Y-55669
X74622Y-56669
X74622Y-57669
X74622Y-58669
X74622Y-59669
X79693Y-28543
X80693Y-28543
X81693Y-28543
T7
X57626Y-60850
X58626Y-60850
X61846Y-60850
X62846Y-60850
X89094Y-28937
X90094Y-28937
X91094Y-28937
X92094Y-28937
T8
X57136Y-58051
X63337Y-58051
T9
X65130Y-57094
X65130Y-59331
X70303Y-57094
X70303Y-59331
T3
G00X72510Y-62638
M15
G01X72510Y-62205
M16
G05
G00X74734Y-62638
M15
G01X74734Y-62205
M16
G05
T5
G00X37303Y-58878
M15
G01X37303Y-59587
M16
G05
G00X37303Y-61421
M15
G01X37303Y-61736
M16
G05
G00X43012Y-58878
M15
G01X43012Y-59587
M16
G05
G00X43012Y-61421
M15
G01X43012Y-61736
M16
G05
G00X47146Y-58878
M15
G01X47146Y-59587
M16
G05
G00X47146Y-61421
M15
G01X47146Y-61736
M16
G05
G00X52854Y-58878
M15
G01X52854Y-59587
M16
G05
G00X52854Y-61421
M15
G01X52854Y-61736
M16
G05
T6
G00X90945Y-58150
M15
G01X91929Y-58150
M16
G05
G00X90945Y-60512
M15
G01X91929Y-60512
M16
G05
G00X93287Y-59823
M15
G01X93287Y-58839
M16
G05
T0
M30
